<svg xmlns="http://www.w3.org/2000/svg" viewBox="0 0 206.23 48.06"><defs><style>.cls-1{fill:#f5db2e;}</style></defs><g id="Camada_2" data-name="Camada 2"><g id="Camada_1-2" data-name="Camada 1"><path class="cls-1" d="M0,47.14V.93H12V7.49A15.75,15.75,0,0,1,25.79,0c6.47,0,11.55,2.68,14.14,8C43.44,2.31,49.36,0,55.18,0c12,0,16.45,7.86,16.45,18V47.14h-12V19.41c0-6-2.13-9.24-7.12-9.24h-.74c-5.55,0-9.89,4.8-9.89,11.27v25.7h-12V19.41c0-6-2.21-9.24-7.21-9.24H21.9C16.36,10.17,12,15,12,21.44v25.7Z"/><path class="cls-1" d="M76.82,24c0-13.86,8.13-24,22-24s21.08,10.08,21.08,23.48c0,1.38-.1,2.86-.19,4.34H88.46c.46,6.38,5.46,10.54,10.45,10.54h.74c4.52,0,7.3-2.68,8.13-5.83H119.7c-2.22,9.06-9.33,15.53-20.89,15.53S76.82,39.28,76.82,24Zm31.42-5.45C108,13,103.71,9.71,98.72,9.71H98c-5,0-9.24,3.32-9.52,8.87Z"/><path class="cls-1" d="M118.41,47.14l16.73-23.29L118.88.93h13.4l9.61,13.49L151.6.93h13L148.36,23.57l16.73,23.57h-13.4L141.61,33,131.45,47.14Z"/><path class="cls-1" d="M163.16,24c0-13.86,8.13-24,22-24s21.08,10.08,21.08,23.48c0,1.38-.1,2.86-.19,4.34H174.8c.46,6.38,5.45,10.54,10.45,10.54H186c4.52,0,7.3-2.68,8.13-5.83H206c-2.22,9.06-9.33,15.53-20.89,15.53S163.16,39.28,163.16,24Zm31.42-5.45c-.28-5.55-4.53-8.87-9.52-8.87h-.74c-5,0-9.24,3.32-9.52,8.87Z"/></g></g></svg>